<svg id="noun_Female_13746" xmlns="http://www.w3.org/2000/svg" width="22.858" height="39.986" viewBox="0 0 22.858 39.986">
  <path id="Path_2008" data-name="Path 2008" d="M49.288,21.539A11.694,11.694,0,0,1,37.859,33.481,11.694,11.694,0,0,1,26.43,21.539,11.694,11.694,0,0,1,37.859,9.6,11.694,11.694,0,0,1,49.288,21.539Zm-11.429-8a7.86,7.86,0,0,0-7.706,8.005,7.711,7.711,0,1,0,15.411,0A7.859,7.859,0,0,0,37.859,13.534Z" transform="translate(-26.43 -9.597)" fill="#455a64"/>
  <rect id="Rectangle_27" data-name="Rectangle 27" width="18.567" height="3.878" transform="translate(13.293 21.393) rotate(89.622)" fill="#455a64"/>
  <rect id="Rectangle_28" data-name="Rectangle 28" width="16.784" height="3.878" transform="translate(3.111 28.962)" fill="#455a64"/>
</svg>
