<svg xmlns="http://www.w3.org/2000/svg" width="24.68" height="41.231" viewBox="0 0 24.68 41.231">
  <g id="noun_Other_Gender_203761" data-name="noun_Other Gender_203761" transform="translate(0.5 0.707)" opacity="0.7">
    <path id="Path_2010" data-name="Path 2010" d="M233.094,49.814a11.789,11.789,0,0,0-5.855-3.2h0v-1.29h2.445V41.659h-2.445V37.7l3.312,3.313,2.591-2.591-5.827-5.827L224.724,30l-8.418,8.418,2.591,2.591,3.312-3.312v3.962h-2.437v3.664h2.437v1.29h0a11.853,11.853,0,0,0-9.325,11.571h5.032a6.807,6.807,0,1,1,6.808,6.808v5.032a11.84,11.84,0,0,0,8.37-20.21Z" transform="translate(-212.884 -30)" fill="#455a64" stroke="#fcfcfd" stroke-width="1"/>
  </g>
</svg>
