<svg xmlns="http://www.w3.org/2000/svg" width="1066.899" height="1038.689" viewBox="0 0 1066.899 1038.689">
  <g id="Group_94" data-name="Group 94" transform="translate(-602.497 188.269)">
    <g id="Group_8" data-name="Group 8" transform="translate(114 -50.489)">
      <path id="Path_48" data-name="Path 48" d="M687.55,157.332c14.734,73.168,31.612,115.05,86.559,132.009,71.255,21.993,71.961,157.407-27.338,170.228-51.922,6.7-87.251-5.861-115.62,29.346-50.592,62.8-89.313,15.345-96.5-13.744C508.055,367.625,445.333,396.794,398.174,337.4c-27.772-34.963-.611-74.959,51.067-84.266,78.921-14.2,97.467-60.239,103.776-82.326C568.253,117.485,672.816,84.15,687.55,157.332Z" transform="translate(101.908 183.912)" fill="none" stroke="#27debf" stroke-miterlimit="10" stroke-width="1" opacity="0.5"/>
      <g id="Ellipse_7" data-name="Ellipse 7" transform="translate(1213 779)" fill="none" stroke="#27debf" stroke-width="9" opacity="0.22">
        <circle cx="19.5" cy="19.5" r="19.5" stroke="none"/>
        <circle cx="19.5" cy="19.5" r="15" fill="none"/>
      </g>
    </g>
    <path id="Path_1" data-name="Path 1" d="M42.87,177.472s84.7-108.808,288.861-61.88S574.848,206.615,548.383,325.74s-151.23,122.735,0,270.738S1032.318,870.826,624,1011.61s-699.437,0-699.437-216.59S42.87,177.472,42.87,177.472Z" transform="matrix(-0.996, 0.087, -0.087, -0.996, 1603.294, 882.403)" fill="#a3e4d7" opacity="0.201"/>
  </g>
</svg>
