<svg xmlns="http://www.w3.org/2000/svg" width="62.761" height="62.784" viewBox="0 0 62.761 62.784">
  <g id="Group_95" data-name="Group 95" transform="translate(-1 -0.976)">
    <path id="Path_2006" data-name="Path 2006" d="M65.189,32.369l-20.2-5.049V64.1a2.853,2.853,0,0,1-.171.951h20.14a.951.951,0,0,0,.951-.951V33.292A.951.951,0,0,0,65.189,32.369Zm-3.8,24.068H49.974a.951.951,0,1,1,0-1.9H61.385a.951.951,0,0,1,0,1.9Zm0-8.691H49.974a.951.951,0,0,1,0-1.9H61.385a.951.951,0,0,1,0,1.9Zm0-8.691H49.974a.951.951,0,0,1,0-1.9H61.385a.951.951,0,0,1,0,1.9Z" transform="translate(-2.151 -1.293)" fill="#455a64"/>
    <path id="Path_2007" data-name="Path 2007" d="M40.577,1.2A.951.951,0,0,0,39.76,1L1.723,10.508A.951.951,0,0,0,1,11.459v51.35a.951.951,0,0,0,.951.951H13.723V45.578a.951.951,0,0,1,.951-.951h12.59a.951.951,0,0,1,.951.951V63.76H39.988a.951.951,0,0,0,.951-.951V1.95a.951.951,0,0,0-.361-.751ZM18,38.284a.951.951,0,0,1-.951.951H10.871a.951.951,0,0,1-.951-.951V30.3a.951.951,0,0,1,.951-.951h6.181A.951.951,0,0,1,18,30.3ZM18,23a.951.951,0,0,1-.951.951H10.871A.951.951,0,0,1,9.92,23V15.025a.951.951,0,0,1,.951-.951h6.181a.951.951,0,0,1,.951.951ZM32.019,38.265a.951.951,0,0,1-.951.951H24.887a.951.951,0,0,1-.951-.951V30.3a.951.951,0,0,1,.951-.951h6.181a.951.951,0,0,1,.951.951Zm0-15.281a.951.951,0,0,1-.951.951H24.887a.951.951,0,0,1-.951-.951V15.025a.951.951,0,0,1,.951-.951h6.181a.951.951,0,0,1,.951.951Z" transform="translate(0)" fill="#455a64"/>
  </g>
</svg>
