<svg xmlns="http://www.w3.org/2000/svg" width="60.142" height="62.458" viewBox="0 0 60.142 62.458">
  <g id="Group_94" data-name="Group 94" transform="translate(0)">
    <path id="Path_1977" data-name="Path 1977" d="M49.454,38.8H47.781a12.322,12.322,0,0,1-8.3,2.895,12.322,12.322,0,0,1-8.3-2.895H29.9c-6.111,0-11,3.731-11,8.3H59.938C60,42.531,55.243,38.8,49.454,38.8Z" transform="translate(-8.93 -14.807)" fill="#455a64"/>
    <path id="Path_1978" data-name="Path 1978" d="M43.95,1.5A12.35,12.35,0,1,0,56.3,13.85,12.353,12.353,0,0,0,43.95,1.5Zm0,21.934a9.608,9.608,0,0,1-9.584-9.584,8.755,8.755,0,0,1,.322-2.316,12.537,12.537,0,0,0,5.468,1.351,8.815,8.815,0,0,0,5.21-1.608c.193-.129,4.374-3.152,7.783-.129a9.591,9.591,0,0,1-9.2,12.286Z" transform="translate(-13.461 -1.5)" fill="#455a64"/>
    <path id="Path_1979" data-name="Path 1979" d="M62.9,81.23H56.081a3.324,3.324,0,0,0,.708-2.058V57.045A3.363,3.363,0,0,0,53.444,53.7H14.335a3.363,3.363,0,0,0-3.345,3.345V79.172A3.323,3.323,0,0,0,11.7,81.23H4.043a.645.645,0,0,0-.643.643v.064a.645.645,0,0,0,.643.643H62.9a.645.645,0,0,0,.643-.643v-.064A.645.645,0,0,0,62.9,81.23ZM28.936,60.84a6.445,6.445,0,0,1,9.134-.064.587.587,0,0,1,0,.772.556.556,0,0,1-.386.193.458.458,0,0,1-.386-.193A5.3,5.3,0,0,0,33.5,60a5.362,5.362,0,0,0-3.8,1.608.556.556,0,0,1-.386.193.458.458,0,0,1-.386-.193A.585.585,0,0,1,28.936,60.84Zm4.631,1.737a2.538,2.538,0,0,0-1.608.643.556.556,0,0,1-.386.193.458.458,0,0,1-.386-.193.556.556,0,0,1-.193-.386.458.458,0,0,1,.193-.386,3.418,3.418,0,0,1,4.76,0,.556.556,0,0,1,.193.386.458.458,0,0,1-.193.386.556.556,0,0,1-.386.193.458.458,0,0,1-.386-.193A2.684,2.684,0,0,0,33.568,62.577Zm.708,2.123a.664.664,0,0,1-.708.708.708.708,0,1,1,0-1.415A.675.675,0,0,1,34.275,64.7Zm4.953,10.549a1.5,1.5,0,0,1-1.415,1.544H29.451a1.5,1.5,0,0,1-1.415-1.544V73.833H26.942a1.359,1.359,0,0,1-1.351-1.351v-2.83A1.359,1.359,0,0,1,26.942,68.3H28.1V66.758H39.292v8.491Z" transform="translate(-3.4 -20.123)" fill="#455a64"/>
    <path id="Path_1980" data-name="Path 1980" d="M39.5,78.386v2.83a.277.277,0,0,0,.257.257h1.158V78H39.822A.408.408,0,0,0,39.5,78.386Z" transform="translate(-16.279 -28.793)" fill="#455a64"/>
  </g>
</svg>
