<svg xmlns="http://www.w3.org/2000/svg" width="54.656" height="62.201" viewBox="0 0 54.656 62.201">
  <g id="noun_hiring_1174291" transform="translate(-8.7 -2.745)">
    <path id="Path_1998" data-name="Path 1998" d="M8.7,81.254v7.967H44.027V81.254A8.42,8.42,0,0,0,35.473,72.7H17.32A8.639,8.639,0,0,0,8.7,81.254Z" transform="translate(0 -24.275)" fill="#455a64"/>
    <path id="Path_1999" data-name="Path 1999" d="M30.46,56.82a9.86,9.86,0,1,0-9.86-9.86A9.893,9.893,0,0,0,30.46,56.82Z" transform="translate(-4.129 -11.921)" fill="#455a64"/>
    <path id="Path_2000" data-name="Path 2000" d="M67.005,61.311a7.719,7.719,0,0,0,7.705-7.705A7.805,7.805,0,0,0,67.005,45.9a7.705,7.705,0,0,0,0,15.411Z" transform="translate(-17.559 -14.975)" fill="#455a64"/>
    <path id="Path_2001" data-name="Path 2001" d="M74.921,73.9H61.6a10.379,10.379,0,0,1,3.591,7.9l.326,7.836H81.712V80.626A6.69,6.69,0,0,0,74.921,73.9Z" transform="translate(-18.357 -24.691)" fill="#455a64"/>
    <path id="Path_2002" data-name="Path 2002" d="M64.5,14.2a3,3,0,0,0,0,6.008,2.955,2.955,0,0,0,3-3A3,3,0,0,0,64.5,14.2Z" transform="translate(-18.322 -3.975)" fill="#455a64"/>
    <path id="Path_2003" data-name="Path 2003" d="M72.428,11.4a11.546,11.546,0,1,0-17.37,12.668l-3,4.636,12.211-3.2A11.539,11.539,0,0,0,72.428,11.4Zm-6.6,7.705a.709.709,0,0,1-.588.261.637.637,0,0,1-.588-.261l-1.894-1.828a4.888,4.888,0,0,1-2.351.653,4.7,4.7,0,1,1,4.7-4.7,4.608,4.608,0,0,1-1.045,2.938l1.7,1.7a.8.8,0,0,1,.261.588A.789.789,0,0,1,65.833,19.106Z" transform="translate(-14.231 0)" fill="#455a64"/>
  </g>
</svg>
