<svg xmlns="http://www.w3.org/2000/svg" width="39.655" height="62.573" viewBox="0 0 39.655 62.573">
  <g id="noun_individual_2993542" transform="translate(-12.985 -2)">
    <path id="Path_2004" data-name="Path 2004" d="M42.856,12.429A10.42,10.42,0,0,0,32.427,2a9.758,9.758,0,0,0-1.624.133,10.429,10.429,0,0,0,1.624,20.724,3.382,3.382,0,0,0,.552-.03A10.388,10.388,0,0,0,42.856,12.429Z" transform="translate(0.388)" fill="#455a64"/>
    <path id="Path_2005" data-name="Path 2005" d="M18.111,26.441l-.128.148a15.614,15.614,0,0,0-3.73,9.31L13,56.428a2.384,2.384,0,0,0,2.215,2.652,2.289,2.289,0,0,0,2.165-1.927l4.611-22.441V50.251H23.2V63.715H42.887V50.251H44.21V34.713l4.016,22.37a2.3,2.3,0,0,0,2.181,2,2.38,2.38,0,0,0,2.223-2.6l-.793-20.374a15.648,15.648,0,0,0-3.745-9.671A12.543,12.543,0,0,0,38.655,22H27.544a12.545,12.545,0,0,0-9.433,4.441Z" transform="translate(0 0.857)" fill="#455a64"/>
  </g>
</svg>
