<svg id="instagram_1_" data-name="instagram (1)" xmlns="http://www.w3.org/2000/svg" width="19.812" height="19.812" viewBox="0 0 19.812 19.812">
  <g id="Group_24" data-name="Group 24">
    <g id="Group_23" data-name="Group 23">
      <path id="Path_1892" data-name="Path 1892" d="M13.621,0H6.191A6.192,6.192,0,0,0,0,6.191v7.43a6.192,6.192,0,0,0,6.191,6.191h7.43a6.192,6.192,0,0,0,6.191-6.191V6.191A6.192,6.192,0,0,0,13.621,0Zm4.334,13.621a4.339,4.339,0,0,1-4.334,4.334H6.191a4.339,4.339,0,0,1-4.334-4.334V6.191A4.339,4.339,0,0,1,6.191,1.857h7.43a4.339,4.339,0,0,1,4.334,4.334Z" fill="#fff"/>
    </g>
  </g>
  <g id="Group_26" data-name="Group 26" transform="translate(4.953 4.953)">
    <g id="Group_25" data-name="Group 25">
      <path id="Path_1893" data-name="Path 1893" d="M132.953,128a4.953,4.953,0,1,0,4.953,4.953A4.953,4.953,0,0,0,132.953,128Zm0,8.049a3.1,3.1,0,1,1,3.1-3.1A3.1,3.1,0,0,1,132.953,136.049Z" transform="translate(-128 -128)" fill="#fff"/>
    </g>
  </g>
  <g id="Group_28" data-name="Group 28" transform="translate(14.571 3.922)">
    <g id="Group_27" data-name="Group 27">
      <ellipse id="Ellipse_33" data-name="Ellipse 33" cx="0.66" cy="0.66" rx="0.66" ry="0.66" fill="#fff"/>
    </g>
  </g>
</svg>
