<svg id="linkedin_1_" data-name="linkedin (1)" xmlns="http://www.w3.org/2000/svg" width="19.051" height="19.051" viewBox="0 0 19.051 19.051">
  <path id="Path_1897" data-name="Path 1897" d="M20.8,20.613h0V13.625c0-3.418-.736-6.051-4.732-6.051a4.148,4.148,0,0,0-3.736,2.054h-.056V7.893H8.489V20.612h3.945v-6.3c0-1.658.314-3.262,2.368-3.262,2.023,0,2.054,1.892,2.054,3.368v6.192Z" transform="translate(-1.751 -1.562)" fill="#f8f8f8"/>
  <path id="Path_1898" data-name="Path 1898" d="M.4,7.977h3.95V20.7H.4Z" transform="translate(-0.082 -1.645)" fill="#f8f8f8"/>
  <path id="Path_1899" data-name="Path 1899" d="M2.288,0A2.3,2.3,0,1,0,4.575,2.288,2.288,2.288,0,0,0,2.288,0Z" fill="#f8f8f8"/>
</svg>
