<svg xmlns="http://www.w3.org/2000/svg" width="412.573" height="440.927" viewBox="0 0 412.573 440.927">
  <g id="girl-sitting-on-armchair-with-laptop-by-oblik-studio" transform="translate(0.009 4.554)">
    <g id="Group_3" data-name="Group 3" transform="translate(-0.009 30.879)">
      <path id="Path_2" data-name="Path 2" d="M167.8,1514.288v0Z" transform="translate(-130.887 -1215.556)" fill="#7a5734"/>
      <g id="Group_2" data-name="Group 2" transform="translate(17.424 210.327)">
        <g id="Group_1" data-name="Group 1" transform="translate(0.044 5.301)">
          <path id="Path_3" data-name="Path 3" d="M124.537,1141.969c-24.5,0-44.477-2.266-45.137-5.1l3.651,42.762c0,20.3,18.7,36.867,41.53,36.867h0c22.855,0,41.53-16.608,41.53-36.867l3.651-42.828h0C169.191,1139.7,149.2,1141.969,124.537,1141.969Z" transform="translate(-79.4 -1136.8)" fill="#dec7b2"/>
        </g>
        <path id="Path_4" data-name="Path 4" d="M124.381,1123.171c-24.878,0-45.093-2.31-45.181-5.213v-.044c.2-2.882,20.347-5.213,45.181-5.213s44.939,2.31,45.181,5.213v.044C169.475,1120.861,149.26,1123.171,124.381,1123.171Z" transform="translate(-79.2 -1112.7)" fill="#e8d4c1"/>
        <path id="Path_5" data-name="Path 5" d="M149.576,1125.043c-21.007,0-38.032-1.98-38.076-4.4v-.044c.2-2.42,17.179-4.4,38.076-4.4,20.963,0,37.944,1.936,38.076,4.4v.044C187.609,1123.063,170.583,1125.043,149.576,1125.043Z" transform="translate(-104.395 -1115.43)" fill="#ba9c7e"/>
        <path id="Path_6" data-name="Path 6" d="M86.5,1220.5a12.158,12.158,0,0,1,8.227,3.585c4.641,4.487,7.523,11.394,11.262,16.651a82.373,82.373,0,0,0,3.739-8.711c1.32-3.542,6.093-6.863,9.833-3.981a37.643,37.643,0,0,1,9.547,10.932c2.222,3.739,4.025,8.183,7.523,10.976,3.365,2.706,7.149,3.5,8.513-1.32,1.232-4.2.814-8.755,2.134-12.956,1.144-3.5,2.926-7.193,6.533-8.711,4.267-1.848,8.381.418,12.164,2.376,2.266,1.144,4.487,2.376,6.665,3.651l-.748,9.041c-3.871-2.42-8.6-5.389-12.582-5.961-2.508-.374-2.31,1.32-2.508,3.7-.132,2.134-.132,4.267-.242,6.335-.242,4.311-.858,8.6-3.41,12.164-5.433,7.655-15.662,7.281-22.855,2.42a31.6,31.6,0,0,1-9.129-9.943c-.814-1.276-1.562-2.6-2.376-3.937-3.08,7.149-7.809,13.572-15.574,10.888-4.817-1.694-7.941-6.951-10.844-10.888-.9-1.232-2.552-4.157-4.2-6.819Z" transform="translate(-84.894 -1196.787)" fill="#ebdbcd"/>
      </g>
      <path id="Path_7" data-name="Path 7" d="M1.268,484.127c.946-3.651,5.257-4.2,7.809-2.09,4.817,4.025,7.325,9.613,9.987,15.134a85.9,85.9,0,0,0,10.162,16.19C37.321,523.677,46.3,533.289,52.257,545.1c11.5,22.9,14.232,49.911,6.335,74.415-.242.748,1.276-3.124-1.188,3.7-2.222,6.159-10.976,2.838-10.888-4.311a42.608,42.608,0,0,0-4.927-19.775c-6.159-12.34-13.858-23.845-19.863-36.339A312.525,312.525,0,0,1,6.02,524.139C1.84,511.293-2.119,497.655,1.268,484.127Z" transform="translate(0.009 -409.476)" fill="rgba(26,188,156,0.62)" opacity="0.889"/>
      <path id="Path_8" data-name="Path 8" d="M181.323,159.27c3.08-5.631,12.208-1.8,10.36,4.355-5.3,18.125-1.518,37.328,1.8,55.454,3.366,18.5,7.237,36.911,9.547,55.542,4.069,33.171,2.75,70.412-18.257,98.084-2.266,2.992-6.995.484-5.147-3.036,2.09-3.937-3.168-29.762-5.5-38.032-2.376-8.513-4.729-17.069-6.863-25.648-4.157-16.74-7.567-33.875-8.513-51.142C156.973,221.235,165.244,188.7,181.323,159.27Z" transform="translate(-123.646 -156.527)" fill="#1abc9c"/>
      <path id="Path_9" data-name="Path 9" d="M291.54,601.381c2.464-11.306.66-23.229,3.08-34.491,2.376-11.02,5.587-22.195,10.734-32.269,4.883-9.547,12.34-16.366,21.095-22.283,8.227-5.587,17.971-11.064,20.875-21.293,1.694-6.049,12.054-5.147,11.394,1.562-1.364,13.682-7.149,25.736-13.858,37.57-7.149,12.582-13.4,24.592-16.937,38.692-6.005,24.174-11.218,55.542-38.8,62.977C285.777,632.683,286.283,625.512,291.54,601.381Z" transform="translate(-223.876 -414.305)" fill="rgba(26,188,156,0.62)"/>
    </g>
    <path id="Path_10" data-name="Path 10" d="M1631.764,35.232l-1.364-1.276L1643.466,19.9l10.206,14.144-1.562,1.1-8.843-12.252Z" transform="translate(-1271.772 -19.075)" fill="#e8d4c1"/>
    <g id="Group_4" data-name="Group 4" transform="translate(61.519 129.528)">
      <path id="Path_11" data-name="Path 11" d="M1354.359,1581.744h0c-3.739.99-7.809-1.562-9.613-6.049l-9.833-24.988c-2.178-5.5.044-11.5,4.641-12.67l6.093-1.606c4.6-1.232,9.459,2.926,10.316,8.755l3.74,26.594C1360.364,1576.486,1358.1,1580.754,1354.359,1581.744Z" transform="translate(-1102.146 -1331.376)" fill="#7a5b3c"/>
      <path id="Path_12" data-name="Path 12" d="M693.67,1581.744h0c3.739.99,7.809-1.562,9.613-6.049l9.833-24.988c2.178-5.5-.044-11.5-4.641-12.67l-6.093-1.606c-4.6-1.232-9.459,2.926-10.317,8.755l-3.739,26.594C687.6,1576.486,689.887,1580.754,693.67,1581.744Z" transform="translate(-598.338 -1331.376)" fill="#7a5b3c"/>
      <path id="Path_13" data-name="Path 13" d="M1439.2,1644.421h0c-4.883,1.276-10.162-2.024-12.45-7.853l-12.78-32.467c-2.794-7.1.044-14.914,6.049-16.476l7.941-2.09c5.961-1.562,12.3,3.784,13.4,11.35l4.817,34.535C1447.074,1637.646,1444.082,1643.145,1439.2,1644.421Z" transform="translate(-1163.625 -1369.637)" fill="#a67c52"/>
      <path id="Path_14" data-name="Path 14" d="M581.37,1644.421h0c4.883,1.276,10.162-2.024,12.45-7.853L606.6,1604.1c2.794-7.1-.044-14.914-6.049-16.476l-7.941-2.09c-5.961-1.562-12.3,3.784-13.4,11.35L574.4,1631.42C573.561,1637.646,576.487,1643.145,581.37,1644.421Z" transform="translate(-509.464 -1369.637)" fill="#a67c52"/>
      <path id="Path_15" data-name="Path 15" d="M694.4,750.948H463.364A25.215,25.215,0,0,1,438.2,725.784v-95.62A25.215,25.215,0,0,1,463.364,605H694.352a25.216,25.216,0,0,1,25.164,25.164v95.62A25.178,25.178,0,0,1,694.4,750.948Z" transform="translate(-403.337 -605)" fill="#1183c7"/>
      <path id="Path_16" data-name="Path 16" d="M579.449,1052.115a8.3,8.3,0,0,0-8.183,7.567c-1.562,16.278-6.159,53.32-16.19,71.775-6.907,12.67-27.166,13.858-32.555,13.9H387.989c-5.389-.088-25.648-1.232-32.555-13.9C345.4,1113,340.762,1076,339.244,1059.681a8.369,8.369,0,0,0-8.183-7.567L288.3,1051.5a8.378,8.378,0,0,0-8.469,8.953c1.43,20.3,6.995,70.214,28.662,102.329,11.79,17.4,30.092,22.789,34.689,23.889,2.6.858,223.465.33,225.247-.044,5.917-1.65,22.569-7.567,33.589-23.8,21.711-32.071,27.3-82.048,28.662-102.329a8.377,8.377,0,0,0-8.469-8.953Z" transform="translate(-279.789 -953.283)" fill="#1590d9"/>
      <path id="Path_17" data-name="Path 17" d="M597.735,1072.5H732.444c5.389-.088,25.692-1.232,32.6-13.9,10.646-19.577,15.178-60.1,16.52-74.613a15.644,15.644,0,0,0-1.8-8.8l-8.887-16.806a1.123,1.123,0,0,0-2.09.286c-2.42,12.01-11.394,54.97-16.124,58.093-5.5,3.651-172.169.484-178.548,0-5.433-.374-11.108-44.565-12.67-57.631a1.138,1.138,0,0,0-2.134-.374l-8.6,16.278a16.262,16.262,0,0,0-1.848,9.173c1.276,14.386,5.829,54.926,16.476,74.371C572.065,1071.273,592.346,1072.417,597.735,1072.5Z" transform="translate(-489.601 -880.187)" fill="#0f8bd5"/>
      <path id="Path_18" data-name="Path 18" d="M774.516,1225.2H610.2a13.471,13.471,0,0,1-1.364-.044c-16.52-.616-27.21-16.476-21.139-30.663l7.479-17.509c.66-1.518,2.134-5.389,2.134-5.389,6.379-14.232,16.52-17.8,30.663-17.8H756.9c14.144,0,27.056,7.281,30.949,18.5,0,0,1.188,3.167,1.848,4.685l7.479,17.509c6.049,14.188-4.641,30.047-21.139,30.663C775.462,1225.2,774.978,1225.2,774.516,1225.2Z" transform="translate(-518.608 -1033.082)" fill="#097abe"/>
      <path id="Path_19" data-name="Path 19" d="M339.031,975.974a16.56,16.56,0,0,1,1.848-9.173l8.6-16.234h0a1.142,1.142,0,0,1,2.09.242h0s-.2-2.992-6.379-3.41H320.95a22.1,22.1,0,0,0-11.878,3.5l-22.195,14.386a15.735,15.735,0,0,0-7.149,13.968A8.377,8.377,0,0,1,288.2,970.3l42.762.616a8.393,8.393,0,0,1,8.095,6.775l.044.044h0A15.7,15.7,0,0,0,339.031,975.974Z" transform="translate(-279.708 -872.083)" fill="rgba(52,156,219,0.93)"/>
      <path id="Path_20" data-name="Path 20" d="M1561.324,976.13a16.483,16.483,0,0,0-2.134-9.173l-8.6-16.19h0a1.142,1.142,0,0,0-2.09.242h0s.2-2.991,6.379-3.409H1579.1a21.733,21.733,0,0,1,11.834,3.5l22.239,14.43a15.737,15.737,0,0,1,7.149,13.968,8.378,8.378,0,0,0-8.469-8.953l-42.828.616a8.086,8.086,0,0,0-7.9,6.775C1561.17,977.978,1561.258,976.7,1561.324,976.13Z" transform="translate(-1269.407 -872.239)" fill="#319ad9"/>
    </g>
    <path id="Path_21" data-name="Path 21" d="M1476.84,1219.009a22.078,22.078,0,0,1,11.966,5.961c5.015,5.147,3.365,13.814,0,16.52-5.829,4.641-17.026,4.641-25.45,4.641a48.35,48.35,0,0,1-14.056-1.892l10.778-26.726C1460.078,1217.491,1466.853,1216.3,1476.84,1219.009Z" transform="translate(-1130.509 -953.034)" fill="#07669f"/>
    <path id="Path_22" data-name="Path 22" d="M1074,1569.729c-4.157,7.567-8.271,15.09-12.45,22.657-2.794,5.059,1.034,11.922,5.917,13.858,5.873,2.376,11.064-.858,13.858-5.917,4.157-7.567,8.271-15.09,12.45-22.656,2.794-5.059-1.034-11.922-5.917-13.858-5.851-2.354-11.064.858-13.858,5.917Z" transform="translate(-827.314 -1222.763)" fill="#fcb58a"/>
    <path id="Path_23" data-name="Path 23" d="M951.3,249s-9.173-29.344-12.3-41.684c-4.773-19.115-17.8-30.619-36.185-30.619-18.631,0-31.741,11.68-36.911,30.707-5.257,19.577-12.164,40.034-12.164,40.034a5.177,5.177,0,0,0,2.992,6.379c5.917,2.376,18.3,6.533,46.039,6.159,24.746-.33,37.57-3.827,43.993-4.487A5.14,5.14,0,0,0,951.3,249Z" transform="translate(-665.764 -141.384)" fill="#07669f"/>
    <path id="Path_24" data-name="Path 24" d="M1050.839,463.4H1029.7v36.581a4.966,4.966,0,0,0,4.971,4.971h11.218a4.966,4.966,0,0,0,4.971-4.971V463.4Z" transform="translate(-803.207 -365.019)" fill="#fcb58a"/>
    <path id="Path_25" data-name="Path 25" d="M1012.7,235.2Z" transform="translate(-789.946 -187.016)" fill="#001d80"/>
    <circle id="Ellipse_1" data-name="Ellipse 1" cx="13.198" cy="13.198" r="13.198" transform="translate(223.546 6.083)" fill="#07669f"/>
    <path id="Path_26" data-name="Path 26" d="M1562.251,142.895h-86.205a.939.939,0,0,1-.946-.946v-60.4a.939.939,0,0,1,.946-.946h86.205a.939.939,0,0,1,.946.946v60.469A.927.927,0,0,1,1562.251,142.895Z" transform="translate(-1150.633 -66.423)" fill="#ebdbcd"/>
    <path id="Path_27" data-name="Path 27" d="M1592.323,166.294H1529.1a.7.7,0,0,1-.7-.7V123a.7.7,0,0,1,.7-.7h63.219a.7.7,0,0,1,.7.7V165.59A.7.7,0,0,1,1592.323,166.294Z" transform="translate(-1192.209 -98.95)" fill="#fcfaf8"/>
    <path id="Path_28" data-name="Path 28" d="M570,1028.579c0-16.7,16.278-28.288,33.3-32.6,34.733-8.843,95.708,2.706,95.708,2.706l-32.225,20.479s29.564,8.227,36.955,9.788,55.41,14.1,56.2,15.332c.814,1.188-17.685,25.692-17.685,25.692s-90.033,1.034-117.7-2.552C596.836,1063.773,570,1057.064,570,1028.579Z" transform="translate(-444.626 -777.848)" fill="#1abc9c"/>
    <path id="Path_29" data-name="Path 29" d="M991.575,1021.585c14.628,3.41,36.383,9.7,46.171,12.78,10.031,3.124,13.858,6.159,13.858,6.159s-18.213,15.992-26.264,47.645c-4.531,17.8-13.2,41.6-14.716,46.831a2.311,2.311,0,0,0,.528,2.266,45.222,45.222,0,0,0,10.162,8.381c5.3,2.926,15,6.159,15.992,4.729,0,0,42.344-41.442,58.863-65.242s31.741-43.092,25.208-59.655c-5.345-13.572-17.179-21.579-36.867-25.736-30.092-6.291-65.11-3.827-65.11-3.827s-2.024,5.213-9.987,14.386C1002.838,1017.977,991.245,1021.541,991.575,1021.585Z" transform="translate(-773.463 -780.027)" fill="#1ad5b0"/>
    <path id="Path_30" data-name="Path 30" d="M922.4,388.041c-3.409,0-3.5-9.9-3.5-11.02s.088-11.02,3.5-11.02,3.5,9.9,3.5,11.02S925.807,388.041,922.4,388.041Zm0-20.149c-.616.616-1.65,3.871-1.65,9.129,0,5.213.99,8.513,1.65,9.129.616-.616,1.65-3.871,1.65-9.129C924,371.763,923.013,368.464,922.4,367.892Z" transform="translate(-716.779 -289.044)" fill="#fff"/>
    <path id="Path_31" data-name="Path 31" d="M1205.3,388.041c-3.409,0-3.5-9.9-3.5-11.02s.088-11.02,3.5-11.02,3.5,9.9,3.5,11.02S1208.685,388.041,1205.3,388.041Zm0-20.149c-.616.616-1.65,3.871-1.65,9.129,0,5.213.99,8.513,1.65,9.129.616-.616,1.65-3.871,1.65-9.129C1206.9,371.763,1205.913,368.464,1205.3,367.892Z" transform="translate(-937.45 -289.044)" fill="#fff"/>
    <circle id="Ellipse_2" data-name="Ellipse 2" cx="35.063" cy="35.063" r="35.063" transform="translate(202.011 36.13)" fill="#fcb58a"/>
    <path id="Path_32" data-name="Path 32" d="M914.732,215.8c.044.572.088,1.144.132,1.65a.362.362,0,0,0,.044.2c.088.616.132,1.232.242,1.8v.044c.088.66.242,1.276.374,1.892a22.117,22.117,0,0,1,21.425-16.849,19.68,19.68,0,0,1,3.783.33,13.521,13.521,0,0,0,2.838.33A12.7,12.7,0,0,0,956.2,193.932a.043.043,0,0,0,.044-.044,15.015,15.015,0,0,0-.2,2.024A13.471,13.471,0,0,0,969.526,209.4h.044a20.138,20.138,0,0,1,15.244,13.9h0a39.24,39.24,0,0,0,1.034-4.773v-.2c.088-.66.2-1.364.242-2.09,0-.2.044-.33.044-.528.044-.748.088-1.562.088-2.31,0-.66,0-1.32-.044-1.936,0-.2-.044-.374-.044-.572-.044-.484-.044-.9-.088-1.364a2.966,2.966,0,0,0-.088-.616,8.541,8.541,0,0,0-.2-1.276,2.966,2.966,0,0,1-.088-.616c-.088-.418-.132-.858-.242-1.276-.044-.2-.088-.374-.132-.572-.088-.418-.242-.9-.33-1.32-.044-.132-.088-.33-.132-.484-.132-.484-.286-.946-.418-1.43-.044-.132-.088-.242-.132-.374-.2-.528-.374-1.034-.572-1.518-.044-.044-.044-.132-.088-.2-.242-.572-.484-1.144-.748-1.694h0a35.876,35.876,0,0,0-14.386-15.706h0a35.742,35.742,0,0,0-6.247-2.882c-.088-.044-.132-.044-.242-.088-.616-.242-1.276-.418-1.892-.616a3.4,3.4,0,0,0-.33-.088c-1.43-.374-2.838-.66-4.311-.9a2.509,2.509,0,0,0-.572-.044c-.572-.044-1.078-.132-1.65-.2-.2,0-.418-.044-.616-.044-.7-.044-1.474-.088-2.222-.088A35.814,35.814,0,0,0,914.6,213.311c0,.66,0,1.32.044,1.98A1.268,1.268,0,0,1,914.732,215.8Z" transform="translate(-713.425 -142.008)" fill="#087dc3"/>
    <path id="Path_33" data-name="Path 33" d="M995.051,1686.554c-.748.946-7.193,9.789-7.765,14.474-.418,3.255-2.376,9.217-3.7,17.179-1.32,7.941-5.5,24.79,6.863,29.278,10.4,3.828,12.912-2.64,15.134-5.675s8.381-26.968,8.843-29.52c.9-5.213,6.665-21.711,6.665-21.711.66-1.364.99-1.892-.484-2.31a82.059,82.059,0,0,1-10.031-3.7c-3.321-1.562-6.665-4.641-8.557-6.159-.66-.572-1.034-.946-1.518-.2C1000.55,1678.239,995.095,1686.51,995.051,1686.554Z" transform="translate(-765.874 -1312.29)" fill="#07669f"/>
    <path id="Path_34" data-name="Path 34" d="M749.2,712.28c-10.888,9.7-19.533,21.821-20.391,36.8-.858,15.464,8.469,27.3,22,33.545,4.025,1.892,8.887,1.144,11.306-2.991,2.09-3.542,1.078-9.415-2.992-11.306-8.975-4.135-15.134-10.206-13.7-20.743,1.32-9.789,8.381-17.355,15.42-23.646,7.985-7.017-3.74-18.7-11.636-11.658Z" transform="translate(-568.457 -557.456)" fill="#fcb58a"/>
    <path id="Path_35" data-name="Path 35" d="M1219.262,728.62a90.816,90.816,0,0,1,9.371,15.134c2.222,4.531,5.147,9.9,4.6,15.134-1.188,10.844-13.154,16.74-21.623,21.337-9.327,5.059-1.034,19.357,8.337,14.232,12.912-6.995,26.726-16.19,29.344-31.9,1.32-8.095-.99-15.376-4.311-22.7a96.528,96.528,0,0,0-11.46-19.643c-2.75-3.5-7.1-5.433-11.306-2.992-3.476,2.134-5.7,7.853-2.948,11.394Z" transform="translate(-941.913 -562.159)" fill="#f0a173"/>
    <path id="Path_36" data-name="Path 36" d="M883.209,575.795a83.99,83.99,0,0,0-23.559-7.809c-1.364,5.829-4.4,9.041-10.932,9.041-6.665,0-8.953-3.366-10.228-9.327-1.364.044-5.5.99-6.445,1.078-11.724,1.034-19.819,5.829-25.824,10.031-8.337,5.763-17.223,17.069-20.875,21.909a3.733,3.733,0,0,0,.088,4.6,46.434,46.434,0,0,0,8.755,8.337c6.049,4.025,16.124,4.025,16.124,4.025l1.518-13.9s-2.552,15.134-3.08,25.164a196.144,196.144,0,0,0,0,20.721l76.5,1.562A79.019,79.019,0,0,0,886.4,625.4c-.418-3.871-4.641-20.479-4.641-20.479l3.541,11.02s5.345.2,14.474-3.828c2.794-1.232,6.665-4.2,8.953-6.005a2.407,2.407,0,0,0,.418-3.366C905.117,597.088,892.337,580.568,883.209,575.795Z" transform="translate(-612.018 -446.376)" fill="#fff"/>
    <path id="Path_37" data-name="Path 37" d="M943.038,264.611v-6.2h21.139v6.2a35.057,35.057,0,0,0,24.372-31.169,35.044,35.044,0,0,0-69.95,0A35.263,35.263,0,0,0,943.038,264.611Z" transform="translate(-716.545 -160.026)" fill="none"/>
    <path id="Path_38" data-name="Path 38" d="M1040.2,493.05a34.6,34.6,0,0,1-10.6-1.65v6.533a28.087,28.087,0,0,0,10.734.748,29.641,29.641,0,0,0,10.448-2.838V491.4A34.253,34.253,0,0,1,1040.2,493.05Z" transform="translate(-803.129 -386.86)" fill="#e3996d"/>
    <g id="Group_5" data-name="Group 5" transform="translate(370.214 -4.554)">
      <path id="Path_39" data-name="Path 39" d="M1683.979,19.09a.879.879,0,0,1-.572-1.562l6.951-5.587a.893.893,0,0,1,1.232.132.854.854,0,0,1-.132,1.232l-6.951,5.587A1.1,1.1,0,0,1,1683.979,19.09Z" transform="translate(-1683.071 -8.168)" fill="#d4bfa9"/>
      <ellipse id="Ellipse_3" data-name="Ellipse 3" cx="2.266" cy="3.322" rx="2.266" ry="3.322" transform="matrix(0.821, -0.572, 0.572, 0.821, 4.754, 2.59)" fill="#d4bfa9"/>
    </g>
    <path id="Path_40" data-name="Path 40" d="M1072.056,1085.351c12.208,2.837,24.548,5.059,36.713,8.095,6.049,1.518,12.054,3.212,17.927,5.3,1.364.484,2.75.99,4.069,1.518.66.286,1.364.528,2.024.814a7.34,7.34,0,0,1,2.09.9c.572.748-1.144,2.376-1.562,2.882-1.034,1.232-2.024,2.42-3.036,3.652-15.046,18.169-28.816,37.416-40.078,58.2a256.2,256.2,0,0,0-16.036,35.854c-.616,1.694,2.134,2.464,2.75.748,8.051-22.811,19.775-44.147,33.457-63.967,6.907-9.987,14.3-19.643,22.041-28.992.946-1.188,1.936-2.31,2.881-3.454a10.179,10.179,0,0,0,2.31-3.409,3.3,3.3,0,0,0-.7-3.453c-.946-.946-2.508-1.32-3.7-1.8a159.939,159.939,0,0,0-18.169-6.049c-13.9-3.827-28.156-6.291-42.212-9.547-1.8-.418-2.574,2.288-.77,2.706Z" transform="translate(-835.444 -848.016)" fill="#fff"/>
    <path id="Path_41" data-name="Path 41" d="M874.2,729.471s4.6-4.883,6.247-8.227a89.8,89.8,0,0,0,3.585-9.745s-1.43,9.327-2.266,13.352a37.6,37.6,0,0,1-2.552,8.337l-4.4-.242a14.316,14.316,0,0,1-.286-1.65C874.376,730.417,874.2,729.471,874.2,729.471Z" transform="translate(-681.912 -558.545)" fill="#e0e0e0"/>
    <path id="Path_42" data-name="Path 42" d="M1233.521,733.661s-3.981-5.345-5.257-8.887A83.573,83.573,0,0,1,1225.8,714.7s.33,9.415.7,13.484a38.948,38.948,0,0,0,1.606,8.557l4.4.242s.286-.814.484-1.606C1233.235,734.607,1233.521,733.661,1233.521,733.661Z" transform="translate(-956.171 -561.041)" fill="#e0e0e0"/>
    <path id="Path_43" data-name="Path 43" d="M890.279,842.436H798a6.515,6.515,0,0,1-6.379-5.257l-10.888-55.014a6.484,6.484,0,0,1,6.379-7.765H904.775a6.484,6.484,0,0,1,6.291,8.139l-14.518,55.08A6.5,6.5,0,0,1,890.279,842.436Z" transform="translate(-608.904 -607.609)" fill="#c5c6e3"/>
    <g id="Group_6" data-name="Group 6" transform="translate(227.609 193.869)">
      <path id="Path_44" data-name="Path 44" d="M1053.672,906.385a9.452,9.452,0,0,1-18.873.066c-.418-4.905,3.827-8.953,9.415-8.953C1049.823,897.455,1054.046,901.458,1053.672,906.385Z" transform="translate(-1034.771 -897.498)" fill="#e8e9ff"/>
    </g>
    <g id="Group_7" data-name="Group 7" transform="translate(351.301 27.839)">
      <path id="Path_45" data-name="Path 45" d="M1600.923,185.488c2.926-2.75,8.469-3.981,11.724-2.42s2.134,1.232,3.256,1.562c1.144.33,3.211-.132,5.147,1.364,2.222,1.76,6.379,6.533,4.113,12.78a14.068,14.068,0,0,1-15.618,8.557c-7.479-1.276-11.174-5.719-12.12-9.5A13.6,13.6,0,0,1,1600.923,185.488Z" transform="translate(-1597.094 -173.655)" fill="#ff5856"/>
      <path id="Path_46" data-name="Path 46" d="M1685.692,155.44s-.242-7.435,4.443-9.129,12.252-4.025,11.922-3.541c-.33.418-2.178,8.513-5.345,10.646C1691.94,156.672,1685.692,155.44,1685.692,155.44Z" transform="translate(-1666.202 -142.706)" fill="#1f6771"/>
      <path id="Path_47" data-name="Path 47" d="M1663.3,161.34s.7-3.585.858-5.763c.286-4.4.2-6.577.2-6.577l3.739.616s-.528,5.147-.946,7.039a20.509,20.509,0,0,1-1.892,5.345s-.7.572-1.32.242A1.023,1.023,0,0,1,1663.3,161.34Z" transform="translate(-1648.735 -147.615)" fill="#6b4d3a"/>
      <ellipse id="Ellipse_4" data-name="Ellipse 4" cx="0.946" cy="1.892" rx="0.946" ry="1.892" transform="translate(15.408 2.16) rotate(-78.686)" fill="#8a634b"/>
    </g>
  </g>
</svg>
