<svg id="youtube" xmlns="http://www.w3.org/2000/svg" width="28.297" height="19.812" viewBox="0 0 28.297 19.812">
  <path id="Path_1895" data-name="Path 1895" d="M27.714,3.1A3.545,3.545,0,0,0,25.22.606C23.005,0,14.148,0,14.148,0S5.291,0,3.077.583A3.618,3.618,0,0,0,.583,3.1,37.357,37.357,0,0,0,0,9.906a37.22,37.22,0,0,0,.583,6.806,3.546,3.546,0,0,0,2.494,2.494c2.237.606,11.071.606,11.071.606s8.857,0,11.071-.583a3.545,3.545,0,0,0,2.494-2.494A37.358,37.358,0,0,0,28.3,9.929,35.459,35.459,0,0,0,27.714,3.1Zm0,0" transform="translate(0)" fill="#455a64"/>
  <path id="Path_1896" data-name="Path 1896" d="M204.969,110.969l7.365-4.242-7.365-4.242Zm0,0" transform="translate(-193.641 -96.82)" fill="#fff"/>
</svg>
